HIERARCHY
ROOT Hips
{
	OFFSET 0.00000 0.00000 0.00000
	CHANNELS 6 Xposition Yposition Zposition Zrotation Yrotation Xrotation 
	JOINT LHipJoint
	{
		OFFSET 0 0 0
		CHANNELS 3 Zrotation Yrotation Xrotation
		JOINT LeftUpLeg
		{
			OFFSET 1.40252 -1.71424 0.59123
			CHANNELS 3 Zrotation Yrotation Xrotation
			JOINT LeftLeg
			{
				OFFSET 2.50071 -6.87065 0.00000
				CHANNELS 3 Zrotation Yrotation Xrotation
				JOINT LeftFoot
				{
					OFFSET 2.50834 -6.89162 0.00000
					CHANNELS 3 Zrotation Yrotation Xrotation
					JOINT LeftToeBase
					{
						OFFSET 0.21528 -0.59149 1.64448
						CHANNELS 3 Zrotation Yrotation Xrotation
						End Site
						{
							OFFSET 0.00000 -0.00000 0.87921
						}
					}
				}
			}
		}
	}
	JOINT RHipJoint
	{
		OFFSET 0 0 0
		CHANNELS 3 Zrotation Yrotation Xrotation
		JOINT RightUpLeg
		{
			OFFSET -1.53651 -1.71424 0.59123
			CHANNELS 3 Zrotation Yrotation Xrotation
			JOINT RightLeg
			{
				OFFSET -2.45783 -6.75285 0.00000
				CHANNELS 3 Zrotation Yrotation Xrotation
				JOINT RightFoot
				{
					OFFSET -2.51921 -6.92147 0.00000
					CHANNELS 3 Zrotation Yrotation Xrotation
					JOINT RightToeBase
					{
						OFFSET -0.21777 -0.59831 1.59676
						CHANNELS 3 Zrotation Yrotation Xrotation
						End Site
						{
							OFFSET -0.00000 -0.00000 0.85779
						}
					}
				}
			}
		}
	}
	JOINT LowerBack
	{
		OFFSET 0 0 0
		CHANNELS 3 Zrotation Yrotation Xrotation
		JOINT Spine
		{
			OFFSET 0.02212 2.07622 0.03776
			CHANNELS 3 Zrotation Yrotation Xrotation
			JOINT Spine1
			{
				OFFSET -0.00949 2.08009 -0.00123
				CHANNELS 3 Zrotation Yrotation Xrotation
				JOINT Neck
				{
					OFFSET 0 0 0
					CHANNELS 3 Zrotation Yrotation Xrotation
					JOINT Neck1
					{
						OFFSET 0.00288 1.67184 0.11155
						CHANNELS 3 Zrotation Yrotation Xrotation
						JOINT Head
						{
							OFFSET -0.02412 1.66997 -0.22040
							CHANNELS 3 Zrotation Yrotation Xrotation
							End Site
							{
								OFFSET -0.01026 1.69043 -0.08683
							}
						}
					}
				}
				JOINT LeftShoulder
				{
					OFFSET 0 0 0
					CHANNELS 3 Zrotation Yrotation Xrotation
					JOINT LeftArm
					{
						OFFSET 3.97941 0.74048 0.81462
						CHANNELS 3 Zrotation Yrotation Xrotation
						JOINT LeftForeArm
						{
							OFFSET 5.01834 -0.00000 -0.00000
							CHANNELS 3 Zrotation Yrotation Xrotation
							JOINT LeftHand
							{
								OFFSET 3.48690 -0.00000 0.00000
								CHANNELS 3 Zrotation Yrotation Xrotation
								JOINT LeftFingerBase
								{
									OFFSET 0 0 0
									CHANNELS 3 Zrotation Yrotation Xrotation
									JOINT LeftHandIndex1
									{
										OFFSET 0.76799 -0.00000 0.00000
										CHANNELS 3 Zrotation Yrotation Xrotation
										End Site
										{
											OFFSET 0.61917 -0.00000 0.00000
										}
									}
								}
								JOINT LThumb
								{
									OFFSET 0 0 0
									CHANNELS 3 Zrotation Yrotation Xrotation
									End Site
									{
										OFFSET 0.62863 -0.00000 0.62863
									}
								}
							}
						}
					}
				}
				JOINT RightShoulder
				{
					OFFSET 0 0 0
					CHANNELS 3 Zrotation Yrotation Xrotation
					JOINT RightArm
					{
						OFFSET -3.88702 1.02123 0.44091
						CHANNELS 3 Zrotation Yrotation Xrotation
						JOINT RightForeArm
						{
							OFFSET -4.70164 -0.00000 0.00000
							CHANNELS 3 Zrotation Yrotation Xrotation
							JOINT RightHand
							{
								OFFSET -3.49911 -0.00000 0.00000
								CHANNELS 3 Zrotation Yrotation Xrotation
								JOINT RightFingerBase
								{
									OFFSET 0 0 0
									CHANNELS 3 Zrotation Yrotation Xrotation
									JOINT RightHandIndex1
									{
										OFFSET -0.73933 -0.00000 0.00000
										CHANNELS 3 Zrotation Yrotation Xrotation
										End Site
										{
											OFFSET -0.59607 -0.00000 0.00000
										}
									}
								}
								JOINT RThumb
								{
									OFFSET 0 0 0
									CHANNELS 3 Zrotation Yrotation Xrotation
									End Site
									{
										OFFSET -0.60517 -0.00000 0.60517
									}
								}
							}
						}
					}
				}
			}
		}
	}
}
MOTION
Frames: 9
Frame Time: .0083333
13.6773 17.0776 -9.2394 183.4730 194.0080 183.4110 0.0000 0.0000 0.0000 -22.2407 -2.3861 -9.5824 2.3553 9.5699 27.5949 1.8038 7.7963 -29.1875 0.3977 -4.0490 -11.2146 0.0000 0.0000 0.0000 10.7468 13.9540 -44.7938 -11.2535 -18.0569 63.6020 0.3799 -11.7836 -9.2621 -0.9683 -6.2648 17.5548 -3.5000 -2.4757 0.3119 -2.2474 -3.3260 -0.1098 -0.3312 -1.6607 -0.2222 -2.7992 -4.5236 -8.3537 -1.7776 -6.0224 39.4016 -1.1928 -3.3922 15.1972 0.0000 0.0000 0.0000 -82.2681 10.4790 58.1208 73.2784 -58.9167 -45.5713 -0.0000 0.0000 -18.4239 15.0564 52.9039 12.1100 -7.1250 0.0000 -0.0000 -65.1600 76.8831 -52.4286 0.0000 0.0000 0.0000 11.3677 2.5654 -23.3258 -64.8959 57.4794 -38.4432 0.0000 0.0000 1.1491 0.2148 4.2631 0.0160 7.1250 -0.0000 -0.0000 19.9502 -25.6013 9.9543
13.6537 17.0471 -9.2085 183.4220 194.6060 183.2200 0.0000 0.0000 0.0000 -22.1141 -2.0440 -9.6330 2.4412 9.7302 28.1075 1.8465 7.8720 -29.5131 0.2826 -3.4187 -9.4467 0.0000 0.0000 0.0000 11.5306 13.6161 -45.5550 -11.8323 -18.3189 65.4563 0.4026 -11.9581 -8.9992 -0.8634 -5.9250 16.5671 -3.7914 -2.4818 0.4073 -2.3907 -3.3401 -0.0685 -0.3128 -1.6679 -0.2250 -2.6660 -4.4057 -8.4948 -1.8362 -5.8438 39.1489 -1.2107 -3.3081 15.0933 0.0000 -0.0000 0.0000 -82.0641 9.9358 59.0592 73.3579 -58.9272 -45.6395 -0.0000 0.0000 -18.3817 14.9384 52.9054 12.0138 -7.1250 0.0000 -0.0000 -65.2099 76.8370 -52.4255 0.0000 -0.0000 0.0000 11.5103 1.9483 -23.8248 -71.2481 58.6287 -43.8351 0.0000 -0.0000 -2.2418 2.4889 2.7379 0.1190 7.1250 -0.0000 -0.0000 21.8474 -26.9810 10.2712
13.6422 17.0217 -9.1814 183.5430 195.0900 183.1730 0.0000 0.0000 0.0000 -22.2421 -1.7749 -9.7149 2.4783 9.7983 28.3259 1.8520 8.0230 -29.6433 0.2340 -3.1131 -8.5937 0.0000 0.0000 0.0000 11.9445 12.9813 -46.4787 -12.4279 -18.5658 67.3390 0.4472 -12.3209 -8.5119 -0.8181 -5.7715 16.1230 -4.1281 -2.7874 0.5071 -2.3347 -3.7595 -0.1716 -0.0605 -1.8738 -0.3523 -3.1069 -4.0623 -8.7163 -1.9661 -5.1613 38.8997 -1.0874 -3.1027 15.0339 0.0000 0.0000 0.0000 -82.4567 9.5947 59.3530 73.8039 -58.9853 -46.0216 -0.0000 0.0000 -18.7191 15.6456 52.8844 12.5892 -7.1250 0.0000 -0.0000 -64.8648 77.1107 -52.3985 0.0000 0.0000 0.0000 10.9667 2.5673 -24.2110 -77.7257 59.4230 -49.3907 0.0000 -0.0000 -5.8362 4.6655 1.2026 0.0981 7.1250 -0.0000 -0.0000 23.7200 -28.3301 10.4700
13.6245 17.0064 -9.1456 183.7520 195.6390 182.9460 0.0000 0.0000 0.0000 -22.4928 -1.3999 -9.3598 2.4446 9.7365 28.1276 1.8358 8.2705 -29.6959 0.2198 -3.0180 -8.3289 0.0000 0.0000 0.0000 12.2606 12.1856 -47.0124 -13.0077 -18.7849 69.1495 0.5173 -13.0215 -8.2564 -0.9473 -6.1985 17.3613 -4.2723 -2.8889 0.8207 -2.5798 -3.9251 -0.3127 -0.2083 -1.9507 -0.6760 -3.1849 -3.9339 -8.8595 -1.9775 -4.9447 38.7855 -1.0487 -3.0281 15.0126 -0.0000 -0.0000 0.0000 -82.2012 9.2621 60.0720 74.6917 -59.0957 -46.7829 -0.0000 0.0000 -20.0751 16.1764 52.7292 12.9985 -7.1250 0.0000 -0.0000 -64.0110 77.2757 -51.7925 -0.0000 -0.0000 0.0000 10.7910 3.0812 -24.6280 -84.5964 59.8894 -55.3221 0.0000 -0.0000 -9.6275 6.6100 -0.9028 -0.1046 7.1250 -0.0000 -0.0000 25.6099 -30.1673 10.2157
13.6043 16.9972 -9.1052 184.0000 196.1210 182.9420 0.0000 0.0000 0.0000 -22.8530 -1.4784 -9.0163 2.3919 9.6387 27.8144 1.8250 8.5540 -29.8092 0.1722 -2.6734 -7.3707 0.0000 0.0000 0.0000 12.3978 11.1764 -47.6934 -13.5968 -18.9872 70.9692 0.6007 -13.8828 -8.2643 -1.1627 -6.8454 19.2582 -4.4186 -2.9585 0.8734 -2.7975 -4.0368 -0.5181 -0.3392 -2.0011 -0.9197 -3.3602 -3.9449 -8.8918 -1.8862 -4.9548 38.5945 -0.9777 -3.0496 14.9371 -0.0000 -0.0000 0.0000 -82.0570 8.7469 60.8984 75.1702 -59.1525 -47.1936 -0.0000 0.0000 -21.3469 16.2091 52.6724 13.0158 -7.1250 0.0000 -0.0000 -63.7507 77.2708 -51.5505 -0.0000 -0.0000 0.0000 10.2895 3.9380 -25.1411 -91.1999 59.9946 -61.0391 0.0000 -0.0000 -13.3490 8.2184 -3.2732 -0.4725 7.1250 -0.0000 -0.0000 27.4095 -32.2162 9.5619
13.5771 16.9922 -9.0561 184.1230 196.6760 183.0750 0.0000 0.0000 0.0000 -23.1093 -1.7991 -8.5971 2.3200 9.5031 27.3821 1.7860 9.0942 -29.9150 0.1327 -2.3481 -6.4688 0.0000 0.0000 0.0000 12.6680 10.1248 -48.2874 -14.1469 -19.1580 72.6527 0.7153 -14.9849 -8.2368 -1.2580 -7.1104 20.0427 -4.4556 -3.0091 0.6692 -2.8968 -4.1032 -0.7154 -0.4247 -2.0317 -1.0114 -3.6347 -3.9917 -8.8371 -1.8573 -4.9662 38.1893 -0.9057 -3.0915 14.7400 -0.0000 -0.0000 0.0000 -82.1206 8.1246 61.8068 75.2048 -59.1565 -47.2233 -0.0000 0.0000 -21.8501 16.6434 52.8300 13.3986 -7.1250 0.0000 -0.0000 -64.2512 77.4894 -52.2338 -0.0000 -0.0000 0.0000 9.3318 5.3981 -25.6714 -97.0931 59.8090 -66.1389 0.0000 -0.0000 -16.5916 9.3774 -5.5732 -0.9189 7.1250 -0.0000 -0.0000 28.9540 -34.1907 8.6424
13.5460 16.9922 -9.0001 184.1080 197.3310 183.1480 0.0000 0.0000 0.0000 -23.2405 -2.0366 -7.9407 2.2181 9.3063 26.7583 1.7037 9.8420 -29.8993 0.1167 -2.2027 -6.0663 0.0000 0.0000 0.0000 13.1577 8.9384 -48.5099 -14.6048 -19.2873 74.0433 0.8313 -16.0185 -8.1340 -1.3128 -7.2576 20.4807 -4.2406 -3.0057 0.4563 -3.0150 -4.0928 -0.8676 -0.6715 -2.0274 -1.0725 -3.6994 -4.1013 -8.7619 -2.0062 -5.0569 37.7050 -0.9516 -3.1597 14.4888 -0.0000 0.0000 0.0000 -82.0677 7.4707 62.8070 75.2151 -59.1577 -47.2321 -0.0000 0.0000 -22.0734 16.5187 52.8258 13.2955 -7.1250 0.0000 -0.0000 -64.2686 77.4375 -52.1957 -0.0000 0.0000 0.0000 8.1595 7.3969 -26.1262 -102.0400 59.4451 -70.4075 0.0000 -0.0000 -19.1179 9.8490 -7.6777 -1.3287 7.1250 -0.0000 -0.0000 30.0101 -36.0153 7.4966
13.5075 16.9973 -8.9491 184.1580 197.8150 183.3430 0.0000 0.0000 0.0000 -23.3878 -2.3885 -7.4230 2.1199 9.1114 26.1445 1.6193 10.4220 -29.7696 0.0986 -2.0253 -5.5755 0.0000 0.0000 0.0000 13.5509 7.4368 -48.7798 -15.0011 -19.3900 75.2399 0.9094 -16.6790 -8.0308 -1.7159 -8.2474 23.4681 -3.9860 -3.0318 0.2510 -3.2331 -4.1302 -1.1218 -1.0381 -2.0467 -1.2522 -3.6548 -4.3175 -8.7213 -2.0986 -5.3599 37.3633 -1.0293 -3.2984 14.3149 0.0000 -0.0000 0.0000 -81.7675 6.8858 63.9375 75.3889 -59.1778 -47.3813 -0.0000 0.0000 -22.2326 15.2251 52.6556 12.2090 -7.1250 0.0000 -0.0000 -64.0649 76.8745 -51.4225 0.0000 -0.0000 0.0000 6.9053 9.7862 -26.4495 -106.0887 58.9990 -73.8864 0.0000 -0.0000 -21.2142 9.9316 -9.6518 -1.6815 7.1250 -0.0000 -0.0000 30.7935 -37.7412 6.2376
13.4602 17.0083 -8.8865 184.2120 198.5120 183.5610 0.0000 0.0000 0.0000 -23.4844 -2.4242 -6.8769 1.9967 8.8592 25.3558 1.5454 10.8543 -29.6085 0.0713 -1.7226 -4.7395 0.0000 0.0000 0.0000 13.9528 5.9394 -48.8112 -15.3053 -19.4632 76.1546 0.9594 -17.0801 -7.8161 -2.2819 -9.4301 27.1503 -3.7113 -2.9018 -0.0462 -3.4643 -3.9578 -1.4262 -1.4352 -1.9630 -1.4355 -3.7428 -4.6789 -8.7151 -2.0789 -5.8929 37.2036 -1.0787 -3.5410 14.2483 -0.0000 -0.0000 0.0000 -81.3766 6.3472 65.3617 75.7748 -59.2214 -47.7129 -0.0000 0.0000 -22.3583 14.6910 52.7724 11.7915 -7.1250 0.0000 -0.0000 -64.7713 76.7013 -51.8824 -0.0000 -0.0000 0.0000 5.4718 12.2996 -26.6552 -109.3081 58.5434 -76.6396 0.0000 -0.0000 -23.2334 9.5606 -11.7179 -1.9591 7.1250 -0.0000 -0.0000 31.3240 -39.5781 4.7409
